<mxfile host="Electron" modified="2023-04-09T20:56:18.647Z" agent="Mozilla/5.0 (Macintosh; Intel Mac OS X 10_15_7) AppleWebKit/537.36 (KHTML, like Gecko) draw.io/21.1.2 Chrome/106.0.5249.199 Electron/21.4.3 Safari/537.36" etag="tzt-rApNhbczMxUy5uzl" version="21.1.2" type="device">
  <diagram id="oLIgsOWftY_Ah2lZ6WgQ" name="PÃ¡gina-1">
    <mxGraphModel dx="708" dy="782" grid="1" gridSize="10" guides="1" tooltips="1" connect="1" arrows="1" fold="1" page="1" pageScale="1" pageWidth="827" pageHeight="1169" math="0" shadow="0">
      <root>
        <mxCell id="0" />
        <mxCell id="1" parent="0" />
        <mxCell id="G8rt144WM2_cW-RHIFGg-1" value="&lt;u&gt;ID (PK)&lt;/u&gt;" style="rounded=0;whiteSpace=wrap;html=1;" parent="1" vertex="1">
          <mxGeometry x="80" y="40" width="80" height="40" as="geometry" />
        </mxCell>
        <mxCell id="G8rt144WM2_cW-RHIFGg-2" value="Name" style="rounded=0;whiteSpace=wrap;html=1;" parent="1" vertex="1">
          <mxGeometry x="160" y="40" width="80" height="40" as="geometry" />
        </mxCell>
        <mxCell id="G8rt144WM2_cW-RHIFGg-3" value="Owner" style="rounded=0;whiteSpace=wrap;html=1;" parent="1" vertex="1">
          <mxGeometry x="240" y="40" width="80" height="40" as="geometry" />
        </mxCell>
        <mxCell id="G8rt144WM2_cW-RHIFGg-4" value="City" style="rounded=0;whiteSpace=wrap;html=1;" parent="1" vertex="1">
          <mxGeometry x="320" y="40" width="80" height="40" as="geometry" />
        </mxCell>
        <mxCell id="G8rt144WM2_cW-RHIFGg-5" value="Conference" style="rounded=0;whiteSpace=wrap;html=1;" parent="1" vertex="1">
          <mxGeometry x="400" y="40" width="80" height="40" as="geometry" />
        </mxCell>
        <mxCell id="G8rt144WM2_cW-RHIFGg-6" value="Found_Year" style="rounded=0;whiteSpace=wrap;html=1;" parent="1" vertex="1">
          <mxGeometry x="480" y="40" width="80" height="40" as="geometry" />
        </mxCell>
        <mxCell id="G8rt144WM2_cW-RHIFGg-135" style="edgeStyle=orthogonalEdgeStyle;rounded=0;orthogonalLoop=1;jettySize=auto;html=1;exitX=0;exitY=0.5;exitDx=0;exitDy=0;entryX=0;entryY=0.5;entryDx=0;entryDy=0;" parent="1" source="G8rt144WM2_cW-RHIFGg-9" edge="1" target="G8rt144WM2_cW-RHIFGg-1">
          <mxGeometry relative="1" as="geometry">
            <mxPoint x="120" y="80" as="targetPoint" />
            <Array as="points">
              <mxPoint x="30" y="140" />
              <mxPoint x="30" y="60" />
            </Array>
          </mxGeometry>
        </mxCell>
        <mxCell id="G8rt144WM2_cW-RHIFGg-7" value="Average Team Statistics" style="text;html=1;strokeColor=none;fillColor=none;align=center;verticalAlign=middle;whiteSpace=wrap;rounded=0;" parent="1" vertex="1">
          <mxGeometry x="90" y="90" width="140" height="30" as="geometry" />
        </mxCell>
        <mxCell id="G8rt144WM2_cW-RHIFGg-9" value="Team ID (FK)" style="rounded=0;whiteSpace=wrap;html=1;fontStyle=4" parent="1" vertex="1">
          <mxGeometry x="80" y="120" width="80" height="40" as="geometry" />
        </mxCell>
        <mxCell id="G8rt144WM2_cW-RHIFGg-10" value="PPG" style="rounded=0;whiteSpace=wrap;html=1;" parent="1" vertex="1">
          <mxGeometry x="160" y="120" width="80" height="40" as="geometry" />
        </mxCell>
        <mxCell id="G8rt144WM2_cW-RHIFGg-11" value="RPG" style="rounded=0;whiteSpace=wrap;html=1;" parent="1" vertex="1">
          <mxGeometry x="240" y="120" width="80" height="40" as="geometry" />
        </mxCell>
        <mxCell id="G8rt144WM2_cW-RHIFGg-12" value="APG" style="rounded=0;whiteSpace=wrap;html=1;" parent="1" vertex="1">
          <mxGeometry x="320" y="120" width="80" height="40" as="geometry" />
        </mxCell>
        <mxCell id="G8rt144WM2_cW-RHIFGg-13" value="BPG" style="rounded=0;whiteSpace=wrap;html=1;" parent="1" vertex="1">
          <mxGeometry x="400" y="120" width="80" height="40" as="geometry" />
        </mxCell>
        <mxCell id="G8rt144WM2_cW-RHIFGg-14" value="SPG" style="rounded=0;whiteSpace=wrap;html=1;" parent="1" vertex="1">
          <mxGeometry x="480" y="120" width="80" height="40" as="geometry" />
        </mxCell>
        <mxCell id="G8rt144WM2_cW-RHIFGg-15" value="FG%" style="rounded=0;whiteSpace=wrap;html=1;" parent="1" vertex="1">
          <mxGeometry x="560" y="120" width="80" height="40" as="geometry" />
        </mxCell>
        <mxCell id="G8rt144WM2_cW-RHIFGg-16" value="3PT%" style="rounded=0;whiteSpace=wrap;html=1;" parent="1" vertex="1">
          <mxGeometry x="640" y="120" width="80" height="40" as="geometry" />
        </mxCell>
        <mxCell id="G8rt144WM2_cW-RHIFGg-17" value="Stadium" style="text;html=1;strokeColor=none;fillColor=none;align=center;verticalAlign=middle;whiteSpace=wrap;rounded=0;" parent="1" vertex="1">
          <mxGeometry x="80" y="170" width="70" height="30" as="geometry" />
        </mxCell>
        <mxCell id="G8rt144WM2_cW-RHIFGg-133" style="edgeStyle=orthogonalEdgeStyle;rounded=0;orthogonalLoop=1;jettySize=auto;html=1;exitX=0.5;exitY=0;exitDx=0;exitDy=0;entryX=0;entryY=0.5;entryDx=0;entryDy=0;" parent="1" source="G8rt144WM2_cW-RHIFGg-18" target="G8rt144WM2_cW-RHIFGg-1" edge="1">
          <mxGeometry relative="1" as="geometry">
            <mxPoint x="70" y="60" as="targetPoint" />
            <Array as="points">
              <mxPoint x="440" y="170" />
              <mxPoint x="30" y="170" />
              <mxPoint x="30" y="60" />
            </Array>
          </mxGeometry>
        </mxCell>
        <mxCell id="G8rt144WM2_cW-RHIFGg-18" value="Team ID (FK)" style="rounded=0;whiteSpace=wrap;html=1;" parent="1" vertex="1">
          <mxGeometry x="400" y="200" width="80" height="40" as="geometry" />
        </mxCell>
        <mxCell id="G8rt144WM2_cW-RHIFGg-20" value="Name" style="rounded=0;whiteSpace=wrap;html=1;" parent="1" vertex="1">
          <mxGeometry x="160" y="200" width="80" height="40" as="geometry" />
        </mxCell>
        <mxCell id="G8rt144WM2_cW-RHIFGg-21" value="Location" style="rounded=0;whiteSpace=wrap;html=1;" parent="1" vertex="1">
          <mxGeometry x="240" y="200" width="80" height="40" as="geometry" />
        </mxCell>
        <mxCell id="G8rt144WM2_cW-RHIFGg-22" value="Capacity" style="rounded=0;whiteSpace=wrap;html=1;" parent="1" vertex="1">
          <mxGeometry x="320" y="200" width="80" height="40" as="geometry" />
        </mxCell>
        <mxCell id="G8rt144WM2_cW-RHIFGg-23" value="League" style="text;html=1;strokeColor=none;fillColor=none;align=center;verticalAlign=middle;whiteSpace=wrap;rounded=0;" parent="1" vertex="1">
          <mxGeometry x="80" y="250" width="70" height="30" as="geometry" />
        </mxCell>
        <mxCell id="G8rt144WM2_cW-RHIFGg-104" style="edgeStyle=orthogonalEdgeStyle;rounded=0;orthogonalLoop=1;jettySize=auto;html=1;exitX=0.75;exitY=0;exitDx=0;exitDy=0;entryX=0.5;entryY=1;entryDx=0;entryDy=0;endArrow=none;endFill=0;startArrow=classic;startFill=1;" parent="1" source="G8rt144WM2_cW-RHIFGg-24" target="G8rt144WM2_cW-RHIFGg-103" edge="1">
          <mxGeometry relative="1" as="geometry">
            <Array as="points">
              <mxPoint x="140" y="260" />
              <mxPoint x="850" y="260" />
              <mxPoint x="850" y="100" />
              <mxPoint x="600" y="100" />
            </Array>
          </mxGeometry>
        </mxCell>
        <mxCell id="G8rt144WM2_cW-RHIFGg-24" value="&lt;u&gt;ID (PK)&lt;/u&gt;" style="rounded=0;whiteSpace=wrap;html=1;" parent="1" vertex="1">
          <mxGeometry x="80" y="280" width="80" height="40" as="geometry" />
        </mxCell>
        <mxCell id="G8rt144WM2_cW-RHIFGg-25" value="Name" style="rounded=0;whiteSpace=wrap;html=1;" parent="1" vertex="1">
          <mxGeometry x="160" y="280" width="80" height="40" as="geometry" />
        </mxCell>
        <mxCell id="G8rt144WM2_cW-RHIFGg-28" value="Store" style="text;html=1;strokeColor=none;fillColor=none;align=center;verticalAlign=middle;whiteSpace=wrap;rounded=0;" parent="1" vertex="1">
          <mxGeometry x="75" y="330" width="70" height="30" as="geometry" />
        </mxCell>
        <mxCell id="G8rt144WM2_cW-RHIFGg-132" style="edgeStyle=orthogonalEdgeStyle;rounded=0;orthogonalLoop=1;jettySize=auto;html=1;exitX=0.5;exitY=0;exitDx=0;exitDy=0;entryX=0;entryY=0.5;entryDx=0;entryDy=0;" parent="1" source="G8rt144WM2_cW-RHIFGg-29" target="G8rt144WM2_cW-RHIFGg-1" edge="1">
          <mxGeometry relative="1" as="geometry">
            <Array as="points">
              <mxPoint x="200" y="330" />
              <mxPoint x="30" y="330" />
              <mxPoint x="30" y="60" />
            </Array>
          </mxGeometry>
        </mxCell>
        <mxCell id="G8rt144WM2_cW-RHIFGg-29" value="Team ID (FK)" style="rounded=0;whiteSpace=wrap;html=1;fontStyle=4" parent="1" vertex="1">
          <mxGeometry x="160" y="360" width="80" height="40" as="geometry" />
        </mxCell>
        <mxCell id="G8rt144WM2_cW-RHIFGg-30" value="&lt;u&gt;ID (PK)&lt;/u&gt;" style="rounded=0;whiteSpace=wrap;html=1;" parent="1" vertex="1">
          <mxGeometry x="80" y="360" width="80" height="40" as="geometry" />
        </mxCell>
        <mxCell id="G8rt144WM2_cW-RHIFGg-31" value="Name" style="rounded=0;whiteSpace=wrap;html=1;" parent="1" vertex="1">
          <mxGeometry x="240" y="360" width="80" height="40" as="geometry" />
        </mxCell>
        <mxCell id="G8rt144WM2_cW-RHIFGg-35" value="Coach" style="text;html=1;strokeColor=none;fillColor=none;align=center;verticalAlign=middle;whiteSpace=wrap;rounded=0;" parent="1" vertex="1">
          <mxGeometry x="75" y="410" width="70" height="30" as="geometry" />
        </mxCell>
        <mxCell id="Z7w5hxMgQ1ZSGmzWVv7X-7" style="edgeStyle=orthogonalEdgeStyle;rounded=0;orthogonalLoop=1;jettySize=auto;html=1;exitX=0.75;exitY=1;exitDx=0;exitDy=0;entryX=0.5;entryY=1;entryDx=0;entryDy=0;" parent="1" source="G8rt144WM2_cW-RHIFGg-37" target="Z7w5hxMgQ1ZSGmzWVv7X-8" edge="1">
          <mxGeometry relative="1" as="geometry">
            <mxPoint x="560" y="480" as="targetPoint" />
          </mxGeometry>
        </mxCell>
        <mxCell id="G8rt144WM2_cW-RHIFGg-37" value="&lt;u&gt;CC Number (PK)&lt;/u&gt;" style="rounded=0;whiteSpace=wrap;html=1;" parent="1" vertex="1">
          <mxGeometry x="80" y="440" width="80" height="40" as="geometry" />
        </mxCell>
        <mxCell id="G8rt144WM2_cW-RHIFGg-42" value="Player" style="text;html=1;strokeColor=none;fillColor=none;align=center;verticalAlign=middle;whiteSpace=wrap;rounded=0;" parent="1" vertex="1">
          <mxGeometry x="75" y="490" width="70" height="30" as="geometry" />
        </mxCell>
        <mxCell id="G8rt144WM2_cW-RHIFGg-126" style="edgeStyle=orthogonalEdgeStyle;rounded=0;orthogonalLoop=1;jettySize=auto;html=1;exitX=0.5;exitY=0;exitDx=0;exitDy=0;entryX=0;entryY=0.5;entryDx=0;entryDy=0;" parent="1" source="G8rt144WM2_cW-RHIFGg-43" target="G8rt144WM2_cW-RHIFGg-1" edge="1">
          <mxGeometry relative="1" as="geometry">
            <Array as="points">
              <mxPoint x="520" y="490" />
              <mxPoint x="30" y="490" />
              <mxPoint x="30" y="60" />
            </Array>
          </mxGeometry>
        </mxCell>
        <mxCell id="G8rt144WM2_cW-RHIFGg-43" value="Team ID (FK)" style="rounded=0;whiteSpace=wrap;html=1;" parent="1" vertex="1">
          <mxGeometry x="480" y="520" width="80" height="40" as="geometry" />
        </mxCell>
        <mxCell id="G8rt144WM2_cW-RHIFGg-46" value="Number" style="rounded=0;whiteSpace=wrap;html=1;" parent="1" vertex="1">
          <mxGeometry x="160" y="520" width="80" height="40" as="geometry" />
        </mxCell>
        <mxCell id="G8rt144WM2_cW-RHIFGg-47" value="Height" style="rounded=0;whiteSpace=wrap;html=1;" parent="1" vertex="1">
          <mxGeometry x="240" y="520" width="80" height="40" as="geometry" />
        </mxCell>
        <mxCell id="G8rt144WM2_cW-RHIFGg-48" value="Weight" style="rounded=0;whiteSpace=wrap;html=1;" parent="1" vertex="1">
          <mxGeometry x="320" y="520" width="80" height="40" as="geometry" />
        </mxCell>
        <mxCell id="G8rt144WM2_cW-RHIFGg-49" value="Position" style="rounded=0;whiteSpace=wrap;html=1;" parent="1" vertex="1">
          <mxGeometry x="400" y="520" width="80" height="40" as="geometry" />
        </mxCell>
        <mxCell id="G8rt144WM2_cW-RHIFGg-52" value="Average Individual Statistics" style="text;html=1;strokeColor=none;fillColor=none;align=center;verticalAlign=middle;whiteSpace=wrap;rounded=0;" parent="1" vertex="1">
          <mxGeometry x="90" y="570" width="155" height="30" as="geometry" />
        </mxCell>
        <mxCell id="G8rt144WM2_cW-RHIFGg-53" value="PPG" style="rounded=0;whiteSpace=wrap;html=1;" parent="1" vertex="1">
          <mxGeometry x="160" y="600" width="80" height="40" as="geometry" />
        </mxCell>
        <mxCell id="G8rt144WM2_cW-RHIFGg-54" value="RPG" style="rounded=0;whiteSpace=wrap;html=1;" parent="1" vertex="1">
          <mxGeometry x="240" y="600" width="80" height="40" as="geometry" />
        </mxCell>
        <mxCell id="G8rt144WM2_cW-RHIFGg-55" value="APG" style="rounded=0;whiteSpace=wrap;html=1;" parent="1" vertex="1">
          <mxGeometry x="320" y="600" width="80" height="40" as="geometry" />
        </mxCell>
        <mxCell id="G8rt144WM2_cW-RHIFGg-56" value="BPG" style="rounded=0;whiteSpace=wrap;html=1;" parent="1" vertex="1">
          <mxGeometry x="400" y="600" width="80" height="40" as="geometry" />
        </mxCell>
        <mxCell id="G8rt144WM2_cW-RHIFGg-57" value="SPG" style="rounded=0;whiteSpace=wrap;html=1;" parent="1" vertex="1">
          <mxGeometry x="480" y="600" width="80" height="40" as="geometry" />
        </mxCell>
        <mxCell id="G8rt144WM2_cW-RHIFGg-58" value="FG%" style="rounded=0;whiteSpace=wrap;html=1;" parent="1" vertex="1">
          <mxGeometry x="560" y="600" width="80" height="40" as="geometry" />
        </mxCell>
        <mxCell id="G8rt144WM2_cW-RHIFGg-59" value="3PT%" style="rounded=0;whiteSpace=wrap;html=1;" parent="1" vertex="1">
          <mxGeometry x="640" y="600" width="80" height="40" as="geometry" />
        </mxCell>
        <mxCell id="Ai_2hOqKXVwBx2akgkYQ-20" style="edgeStyle=orthogonalEdgeStyle;rounded=0;orthogonalLoop=1;jettySize=auto;html=1;exitX=0;exitY=0.5;exitDx=0;exitDy=0;entryX=0;entryY=0.5;entryDx=0;entryDy=0;" parent="1" source="G8rt144WM2_cW-RHIFGg-60" target="Z7w5hxMgQ1ZSGmzWVv7X-5" edge="1">
          <mxGeometry relative="1" as="geometry">
            <Array as="points">
              <mxPoint x="70" y="620" />
              <mxPoint x="70" y="540" />
            </Array>
          </mxGeometry>
        </mxCell>
        <mxCell id="G8rt144WM2_cW-RHIFGg-60" value="Player CC Number(FK)" style="rounded=0;whiteSpace=wrap;html=1;fontStyle=4" parent="1" vertex="1">
          <mxGeometry x="80" y="600" width="80" height="40" as="geometry" />
        </mxCell>
        <mxCell id="G8rt144WM2_cW-RHIFGg-62" value="Contract" style="text;html=1;strokeColor=none;fillColor=none;align=center;verticalAlign=middle;whiteSpace=wrap;rounded=0;" parent="1" vertex="1">
          <mxGeometry x="80" y="650" width="70" height="30" as="geometry" />
        </mxCell>
        <mxCell id="G8rt144WM2_cW-RHIFGg-128" style="edgeStyle=orthogonalEdgeStyle;rounded=0;orthogonalLoop=1;jettySize=auto;html=1;entryX=1;entryY=0.5;entryDx=0;entryDy=0;endArrow=none;endFill=0;startArrow=classic;startFill=1;" parent="1" source="G8rt144WM2_cW-RHIFGg-88" target="G8rt144WM2_cW-RHIFGg-127" edge="1">
          <mxGeometry relative="1" as="geometry">
            <Array as="points">
              <mxPoint x="150" y="650" />
              <mxPoint x="990" y="650" />
              <mxPoint x="990" y="540" />
            </Array>
          </mxGeometry>
        </mxCell>
        <mxCell id="G8rt144WM2_cW-RHIFGg-65" value="Start Date" style="rounded=0;whiteSpace=wrap;html=1;" parent="1" vertex="1">
          <mxGeometry x="320" y="680" width="80" height="40" as="geometry" />
        </mxCell>
        <mxCell id="G8rt144WM2_cW-RHIFGg-66" value="End Date" style="rounded=0;whiteSpace=wrap;html=1;" parent="1" vertex="1">
          <mxGeometry x="400" y="680" width="80" height="40" as="geometry" />
        </mxCell>
        <mxCell id="G8rt144WM2_cW-RHIFGg-67" value="Description" style="rounded=0;whiteSpace=wrap;html=1;" parent="1" vertex="1">
          <mxGeometry x="160" y="680" width="80" height="40" as="geometry" />
        </mxCell>
        <mxCell id="G8rt144WM2_cW-RHIFGg-68" value="Salary" style="rounded=0;whiteSpace=wrap;html=1;" parent="1" vertex="1">
          <mxGeometry x="240" y="680" width="80" height="40" as="geometry" />
        </mxCell>
        <mxCell id="G8rt144WM2_cW-RHIFGg-71" value="Game" style="text;html=1;strokeColor=none;fillColor=none;align=center;verticalAlign=middle;whiteSpace=wrap;rounded=0;" parent="1" vertex="1">
          <mxGeometry x="80" y="730" width="70" height="30" as="geometry" />
        </mxCell>
        <mxCell id="G8rt144WM2_cW-RHIFGg-72" value="&lt;u&gt;ID (PK)&lt;/u&gt;" style="rounded=0;whiteSpace=wrap;html=1;" parent="1" vertex="1">
          <mxGeometry x="80" y="760" width="80" height="40" as="geometry" />
        </mxCell>
        <mxCell id="G8rt144WM2_cW-RHIFGg-120" style="edgeStyle=orthogonalEdgeStyle;rounded=0;orthogonalLoop=1;jettySize=auto;html=1;exitX=0.5;exitY=0;exitDx=0;exitDy=0;entryX=0;entryY=0.5;entryDx=0;entryDy=0;" parent="1" source="G8rt144WM2_cW-RHIFGg-73" target="G8rt144WM2_cW-RHIFGg-1" edge="1">
          <mxGeometry relative="1" as="geometry">
            <Array as="points">
              <mxPoint x="680" y="730" />
              <mxPoint x="30" y="730" />
              <mxPoint x="30" y="60" />
            </Array>
          </mxGeometry>
        </mxCell>
        <mxCell id="G8rt144WM2_cW-RHIFGg-73" value="Home Team ID (FK)" style="rounded=0;whiteSpace=wrap;html=1;" parent="1" vertex="1">
          <mxGeometry x="640" y="760" width="80" height="40" as="geometry" />
        </mxCell>
        <mxCell id="G8rt144WM2_cW-RHIFGg-119" style="edgeStyle=orthogonalEdgeStyle;rounded=0;orthogonalLoop=1;jettySize=auto;html=1;exitX=0.5;exitY=0;exitDx=0;exitDy=0;entryX=0;entryY=0.5;entryDx=0;entryDy=0;" parent="1" source="G8rt144WM2_cW-RHIFGg-74" target="G8rt144WM2_cW-RHIFGg-1" edge="1">
          <mxGeometry relative="1" as="geometry">
            <Array as="points">
              <mxPoint x="600" y="730" />
              <mxPoint x="30" y="730" />
              <mxPoint x="30" y="60" />
            </Array>
          </mxGeometry>
        </mxCell>
        <mxCell id="G8rt144WM2_cW-RHIFGg-74" value="Away Team ID (FK)" style="rounded=0;whiteSpace=wrap;html=1;" parent="1" vertex="1">
          <mxGeometry x="560" y="760" width="80" height="40" as="geometry" />
        </mxCell>
        <mxCell id="G8rt144WM2_cW-RHIFGg-75" value="Winner" style="rounded=0;whiteSpace=wrap;html=1;" parent="1" vertex="1">
          <mxGeometry x="160" y="760" width="80" height="40" as="geometry" />
        </mxCell>
        <mxCell id="G8rt144WM2_cW-RHIFGg-76" value="Score" style="rounded=0;whiteSpace=wrap;html=1;" parent="1" vertex="1">
          <mxGeometry x="480" y="760" width="80" height="40" as="geometry" />
        </mxCell>
        <mxCell id="G8rt144WM2_cW-RHIFGg-77" value="Date" style="rounded=0;whiteSpace=wrap;html=1;" parent="1" vertex="1">
          <mxGeometry x="400" y="760" width="80" height="40" as="geometry" />
        </mxCell>
        <mxCell id="G8rt144WM2_cW-RHIFGg-88" value="&lt;u&gt;ID (PK)&lt;/u&gt;" style="whiteSpace=wrap;html=1;" parent="1" vertex="1">
          <mxGeometry x="80" y="680" width="80" height="40" as="geometry" />
        </mxCell>
        <mxCell id="G8rt144WM2_cW-RHIFGg-90" value="Ticket" style="text;html=1;strokeColor=none;fillColor=none;align=center;verticalAlign=middle;whiteSpace=wrap;rounded=0;" parent="1" vertex="1">
          <mxGeometry x="80" y="810" width="70" height="30" as="geometry" />
        </mxCell>
        <mxCell id="G8rt144WM2_cW-RHIFGg-91" value="&lt;u&gt;Type (PK)&lt;/u&gt;" style="rounded=0;whiteSpace=wrap;html=1;" parent="1" vertex="1">
          <mxGeometry x="80" y="840" width="80" height="40" as="geometry" />
        </mxCell>
        <mxCell id="G8rt144WM2_cW-RHIFGg-122" style="edgeStyle=orthogonalEdgeStyle;rounded=0;orthogonalLoop=1;jettySize=auto;html=1;exitX=0.5;exitY=0;exitDx=0;exitDy=0;entryX=0.75;entryY=1;entryDx=0;entryDy=0;" parent="1" source="G8rt144WM2_cW-RHIFGg-92" target="G8rt144WM2_cW-RHIFGg-72" edge="1">
          <mxGeometry relative="1" as="geometry">
            <Array as="points">
              <mxPoint x="200" y="820" />
              <mxPoint x="140" y="820" />
            </Array>
          </mxGeometry>
        </mxCell>
        <mxCell id="G8rt144WM2_cW-RHIFGg-92" value="Game ID (FK)" style="rounded=0;whiteSpace=wrap;html=1;fontStyle=4" parent="1" vertex="1">
          <mxGeometry x="160" y="840" width="80" height="40" as="geometry" />
        </mxCell>
        <mxCell id="G8rt144WM2_cW-RHIFGg-94" value="&lt;u&gt;ID (PK)&lt;/u&gt;" style="rounded=0;whiteSpace=wrap;html=1;" parent="1" vertex="1">
          <mxGeometry x="80" y="200" width="80" height="40" as="geometry" />
        </mxCell>
        <mxCell id="G8rt144WM2_cW-RHIFGg-97" value="Price" style="rounded=0;whiteSpace=wrap;html=1;" parent="1" vertex="1">
          <mxGeometry x="240" y="840" width="80" height="40" as="geometry" />
        </mxCell>
        <mxCell id="G8rt144WM2_cW-RHIFGg-102" value="Team" style="text;html=1;align=center;verticalAlign=middle;resizable=0;points=[];autosize=1;strokeColor=none;fillColor=none;" parent="1" vertex="1">
          <mxGeometry x="90" y="10" width="50" height="30" as="geometry" />
        </mxCell>
        <mxCell id="G8rt144WM2_cW-RHIFGg-103" value="League ID (FK)" style="rounded=0;whiteSpace=wrap;html=1;" parent="1" vertex="1">
          <mxGeometry x="560" y="40" width="80" height="40" as="geometry" />
        </mxCell>
        <mxCell id="G8rt144WM2_cW-RHIFGg-106" value="Position" style="whiteSpace=wrap;html=1;fontStyle=0" parent="1" vertex="1">
          <mxGeometry x="240" y="920" width="80" height="40" as="geometry" />
        </mxCell>
        <mxCell id="G8rt144WM2_cW-RHIFGg-107" value="Standings" style="text;html=1;align=center;verticalAlign=middle;resizable=0;points=[];autosize=1;strokeColor=none;fillColor=none;" parent="1" vertex="1">
          <mxGeometry x="80" y="890" width="80" height="30" as="geometry" />
        </mxCell>
        <mxCell id="G8rt144WM2_cW-RHIFGg-109" value="Games_Num" style="whiteSpace=wrap;html=1;fontStyle=0" parent="1" vertex="1">
          <mxGeometry x="320" y="920" width="80" height="40" as="geometry" />
        </mxCell>
        <mxCell id="G8rt144WM2_cW-RHIFGg-110" value="Wins" style="whiteSpace=wrap;html=1;fontStyle=0" parent="1" vertex="1">
          <mxGeometry x="400" y="920" width="80" height="40" as="geometry" />
        </mxCell>
        <mxCell id="G8rt144WM2_cW-RHIFGg-111" value="Losses" style="whiteSpace=wrap;html=1;fontStyle=0" parent="1" vertex="1">
          <mxGeometry x="480" y="920" width="80" height="40" as="geometry" />
        </mxCell>
        <mxCell id="G8rt144WM2_cW-RHIFGg-114" style="edgeStyle=orthogonalEdgeStyle;rounded=0;orthogonalLoop=1;jettySize=auto;html=1;exitX=0;exitY=0.5;exitDx=0;exitDy=0;entryX=0;entryY=0.5;entryDx=0;entryDy=0;" parent="1" source="G8rt144WM2_cW-RHIFGg-113" target="G8rt144WM2_cW-RHIFGg-24" edge="1">
          <mxGeometry relative="1" as="geometry">
            <Array as="points">
              <mxPoint x="10" y="940" />
              <mxPoint x="10" y="300" />
            </Array>
          </mxGeometry>
        </mxCell>
        <mxCell id="G8rt144WM2_cW-RHIFGg-113" value="League ID (FK)" style="whiteSpace=wrap;html=1;fontStyle=4" parent="1" vertex="1">
          <mxGeometry x="80" y="920" width="80" height="40" as="geometry" />
        </mxCell>
        <mxCell id="G8rt144WM2_cW-RHIFGg-116" style="edgeStyle=orthogonalEdgeStyle;rounded=0;orthogonalLoop=1;jettySize=auto;html=1;exitX=0.5;exitY=0;exitDx=0;exitDy=0;entryX=0;entryY=0.5;entryDx=0;entryDy=0;" parent="1" source="G8rt144WM2_cW-RHIFGg-115" target="G8rt144WM2_cW-RHIFGg-1" edge="1">
          <mxGeometry relative="1" as="geometry">
            <Array as="points">
              <mxPoint x="440" y="810" />
              <mxPoint x="30" y="810" />
              <mxPoint x="30" y="60" />
            </Array>
          </mxGeometry>
        </mxCell>
        <mxCell id="G8rt144WM2_cW-RHIFGg-115" value="Team ID (FK)" style="rounded=0;whiteSpace=wrap;html=1;" parent="1" vertex="1">
          <mxGeometry x="400" y="840" width="80" height="40" as="geometry" />
        </mxCell>
        <mxCell id="G8rt144WM2_cW-RHIFGg-117" value="Location" style="rounded=0;whiteSpace=wrap;html=1;" parent="1" vertex="1">
          <mxGeometry x="240" y="760" width="80" height="40" as="geometry" />
        </mxCell>
        <mxCell id="G8rt144WM2_cW-RHIFGg-118" value="Time" style="rounded=0;whiteSpace=wrap;html=1;" parent="1" vertex="1">
          <mxGeometry x="320" y="760" width="80" height="40" as="geometry" />
        </mxCell>
        <mxCell id="G8rt144WM2_cW-RHIFGg-127" value="Contract ID (FK)" style="rounded=0;whiteSpace=wrap;html=1;" parent="1" vertex="1">
          <mxGeometry x="560" y="520" width="80" height="40" as="geometry" />
        </mxCell>
        <mxCell id="G8rt144WM2_cW-RHIFGg-130" style="edgeStyle=orthogonalEdgeStyle;rounded=0;orthogonalLoop=1;jettySize=auto;html=1;exitX=0.75;exitY=1;exitDx=0;exitDy=0;entryX=0.75;entryY=0;entryDx=0;entryDy=0;" parent="1" target="G8rt144WM2_cW-RHIFGg-37" edge="1">
          <mxGeometry relative="1" as="geometry">
            <Array as="points">
              <mxPoint x="700" y="90" />
              <mxPoint x="1060" y="90" />
              <mxPoint x="1060" y="410" />
              <mxPoint x="140" y="410" />
            </Array>
            <mxPoint x="700" y="80" as="sourcePoint" />
          </mxGeometry>
        </mxCell>
        <mxCell id="KJiCYu2wYnRPmAsTG2tg-2" style="edgeStyle=orthogonalEdgeStyle;rounded=0;orthogonalLoop=1;jettySize=auto;html=1;exitX=0.5;exitY=0;exitDx=0;exitDy=0;entryX=0.5;entryY=1;entryDx=0;entryDy=0;" parent="1" source="KJiCYu2wYnRPmAsTG2tg-1" target="G8rt144WM2_cW-RHIFGg-94" edge="1">
          <mxGeometry relative="1" as="geometry">
            <Array as="points">
              <mxPoint x="760" y="750" />
              <mxPoint x="1010" y="750" />
              <mxPoint x="1010" y="250" />
              <mxPoint x="120" y="250" />
            </Array>
          </mxGeometry>
        </mxCell>
        <mxCell id="KJiCYu2wYnRPmAsTG2tg-1" value="Stadium ID (FK)" style="rounded=0;whiteSpace=wrap;html=1;" parent="1" vertex="1">
          <mxGeometry x="720" y="760" width="80" height="40" as="geometry" />
        </mxCell>
        <mxCell id="KJiCYu2wYnRPmAsTG2tg-5" value="Points" style="whiteSpace=wrap;html=1;fontStyle=0" parent="1" vertex="1">
          <mxGeometry x="560" y="920" width="80" height="40" as="geometry" />
        </mxCell>
        <mxCell id="KJiCYu2wYnRPmAsTG2tg-12" value="ID (PK)" style="rounded=0;whiteSpace=wrap;html=1;fontStyle=4" parent="1" vertex="1">
          <mxGeometry x="440" y="360" width="80" height="40" as="geometry" />
        </mxCell>
        <mxCell id="KJiCYu2wYnRPmAsTG2tg-13" value="Type" style="rounded=0;whiteSpace=wrap;html=1;" parent="1" vertex="1">
          <mxGeometry x="760" y="360" width="80" height="40" as="geometry" />
        </mxCell>
        <mxCell id="KJiCYu2wYnRPmAsTG2tg-14" value="Price" style="rounded=0;whiteSpace=wrap;html=1;" parent="1" vertex="1">
          <mxGeometry x="920" y="360" width="80" height="40" as="geometry" />
        </mxCell>
        <mxCell id="KJiCYu2wYnRPmAsTG2tg-15" value="Size" style="rounded=0;whiteSpace=wrap;html=1;" parent="1" vertex="1">
          <mxGeometry x="840" y="360" width="80" height="40" as="geometry" />
        </mxCell>
        <mxCell id="KJiCYu2wYnRPmAsTG2tg-19" style="edgeStyle=orthogonalEdgeStyle;rounded=0;orthogonalLoop=1;jettySize=auto;html=1;exitX=0.5;exitY=0;exitDx=0;exitDy=0;entryX=0.75;entryY=0;entryDx=0;entryDy=0;" parent="1" source="KJiCYu2wYnRPmAsTG2tg-16" target="G8rt144WM2_cW-RHIFGg-30" edge="1">
          <mxGeometry relative="1" as="geometry">
            <Array as="points">
              <mxPoint x="560" y="340" />
              <mxPoint x="140" y="340" />
            </Array>
          </mxGeometry>
        </mxCell>
        <mxCell id="KJiCYu2wYnRPmAsTG2tg-16" value="&lt;u&gt;Store ID (FK)&lt;/u&gt;" style="rounded=0;whiteSpace=wrap;html=1;" parent="1" vertex="1">
          <mxGeometry x="520" y="360" width="80" height="40" as="geometry" />
        </mxCell>
        <mxCell id="KJiCYu2wYnRPmAsTG2tg-18" value="Name" style="rounded=0;whiteSpace=wrap;html=1;" parent="1" vertex="1">
          <mxGeometry x="680" y="360" width="80" height="40" as="geometry" />
        </mxCell>
        <mxCell id="KJiCYu2wYnRPmAsTG2tg-20" value="Product" style="text;html=1;align=center;verticalAlign=middle;resizable=0;points=[];autosize=1;strokeColor=none;fillColor=none;" parent="1" vertex="1">
          <mxGeometry x="440" y="330" width="60" height="30" as="geometry" />
        </mxCell>
        <mxCell id="Z7w5hxMgQ1ZSGmzWVv7X-1" value="Person" style="text;html=1;align=center;verticalAlign=middle;resizable=0;points=[];autosize=1;strokeColor=none;fillColor=none;" parent="1" vertex="1">
          <mxGeometry x="440" y="410" width="60" height="30" as="geometry" />
        </mxCell>
        <mxCell id="Z7w5hxMgQ1ZSGmzWVv7X-2" value="Age" style="rounded=0;whiteSpace=wrap;html=1;" parent="1" vertex="1">
          <mxGeometry x="600" y="440" width="80" height="40" as="geometry" />
        </mxCell>
        <mxCell id="Z7w5hxMgQ1ZSGmzWVv7X-3" value="Name" style="rounded=0;whiteSpace=wrap;html=1;" parent="1" vertex="1">
          <mxGeometry x="520" y="440" width="80" height="40" as="geometry" />
        </mxCell>
        <mxCell id="Z7w5hxMgQ1ZSGmzWVv7X-6" style="edgeStyle=orthogonalEdgeStyle;rounded=0;orthogonalLoop=1;jettySize=auto;html=1;exitX=0.75;exitY=0;exitDx=0;exitDy=0;entryX=0.5;entryY=1;entryDx=0;entryDy=0;" parent="1" source="Z7w5hxMgQ1ZSGmzWVv7X-5" target="Z7w5hxMgQ1ZSGmzWVv7X-8" edge="1">
          <mxGeometry relative="1" as="geometry">
            <mxPoint x="560" y="480" as="targetPoint" />
          </mxGeometry>
        </mxCell>
        <mxCell id="Z7w5hxMgQ1ZSGmzWVv7X-5" value="&lt;u&gt;CC Number (PK)&lt;/u&gt;" style="rounded=0;whiteSpace=wrap;html=1;" parent="1" vertex="1">
          <mxGeometry x="80" y="520" width="80" height="40" as="geometry" />
        </mxCell>
        <mxCell id="Z7w5hxMgQ1ZSGmzWVv7X-8" value="&lt;u&gt;CC Number (PK)&lt;/u&gt;" style="rounded=0;whiteSpace=wrap;html=1;" parent="1" vertex="1">
          <mxGeometry x="440" y="440" width="80" height="40" as="geometry" />
        </mxCell>
        <mxCell id="Z7w5hxMgQ1ZSGmzWVv7X-11" style="edgeStyle=orthogonalEdgeStyle;rounded=0;orthogonalLoop=1;jettySize=auto;html=1;exitX=0.5;exitY=0;exitDx=0;exitDy=0;entryX=0.865;entryY=-0.005;entryDx=0;entryDy=0;entryPerimeter=0;" parent="1" source="Z7w5hxMgQ1ZSGmzWVv7X-10" target="G8rt144WM2_cW-RHIFGg-29" edge="1">
          <mxGeometry relative="1" as="geometry">
            <Array as="points">
              <mxPoint x="640" y="330" />
              <mxPoint x="229" y="330" />
            </Array>
          </mxGeometry>
        </mxCell>
        <mxCell id="Z7w5hxMgQ1ZSGmzWVv7X-10" value="Team ID (FK)" style="rounded=0;whiteSpace=wrap;html=1;fontStyle=4" parent="1" vertex="1">
          <mxGeometry x="600" y="360" width="80" height="40" as="geometry" />
        </mxCell>
        <mxCell id="xIJRfMv0uM2f2h_o9VfL-2" value="Coach CC Number (FK)" style="rounded=0;whiteSpace=wrap;html=1;" parent="1" vertex="1">
          <mxGeometry x="640" y="40" width="80" height="40" as="geometry" />
        </mxCell>
        <mxCell id="AwvjGVaj7ItWjTfU20gk-5" style="edgeStyle=orthogonalEdgeStyle;rounded=0;orthogonalLoop=1;jettySize=auto;html=1;exitX=0.5;exitY=0;exitDx=0;exitDy=0;entryX=0.888;entryY=0;entryDx=0;entryDy=0;entryPerimeter=0;" parent="1" source="AwvjGVaj7ItWjTfU20gk-4" target="G8rt144WM2_cW-RHIFGg-88" edge="1">
          <mxGeometry relative="1" as="geometry">
            <Array as="points">
              <mxPoint x="200" y="420" />
              <mxPoint x="60" y="420" />
              <mxPoint x="60" y="650" />
              <mxPoint x="151" y="650" />
            </Array>
          </mxGeometry>
        </mxCell>
        <mxCell id="AwvjGVaj7ItWjTfU20gk-4" value="Contract ID" style="rounded=0;whiteSpace=wrap;html=1;" parent="1" vertex="1">
          <mxGeometry x="160" y="440" width="80" height="40" as="geometry" />
        </mxCell>
        <mxCell id="Ai_2hOqKXVwBx2akgkYQ-2" value="Individual Statistic" style="text;html=1;align=center;verticalAlign=middle;resizable=0;points=[];autosize=1;strokeColor=none;fillColor=none;" parent="1" vertex="1">
          <mxGeometry x="80" y="970" width="120" height="30" as="geometry" />
        </mxCell>
        <mxCell id="Ai_2hOqKXVwBx2akgkYQ-21" style="edgeStyle=orthogonalEdgeStyle;rounded=0;orthogonalLoop=1;jettySize=auto;html=1;exitX=0;exitY=0.5;exitDx=0;exitDy=0;entryX=0;entryY=0.5;entryDx=0;entryDy=0;" parent="1" source="Ai_2hOqKXVwBx2akgkYQ-3" target="Z7w5hxMgQ1ZSGmzWVv7X-5" edge="1">
          <mxGeometry relative="1" as="geometry">
            <Array as="points">
              <mxPoint x="70" y="1020" />
              <mxPoint x="70" y="540" />
            </Array>
          </mxGeometry>
        </mxCell>
        <mxCell id="Ai_2hOqKXVwBx2akgkYQ-3" value="Player CC Number(FK)" style="rounded=0;whiteSpace=wrap;html=1;fontStyle=4" parent="1" vertex="1">
          <mxGeometry x="80" y="1000" width="80" height="40" as="geometry" />
        </mxCell>
        <mxCell id="Ai_2hOqKXVwBx2akgkYQ-22" style="edgeStyle=orthogonalEdgeStyle;rounded=0;orthogonalLoop=1;jettySize=auto;html=1;exitX=0.75;exitY=0;exitDx=0;exitDy=0;entryX=0.75;entryY=1;entryDx=0;entryDy=0;" parent="1" source="Ai_2hOqKXVwBx2akgkYQ-4" target="G8rt144WM2_cW-RHIFGg-72" edge="1">
          <mxGeometry relative="1" as="geometry">
            <mxPoint x="170" y="830" as="targetPoint" />
            <Array as="points">
              <mxPoint x="220" y="970" />
              <mxPoint x="680" y="970" />
              <mxPoint x="680" y="820" />
              <mxPoint x="140" y="820" />
            </Array>
          </mxGeometry>
        </mxCell>
        <mxCell id="Ai_2hOqKXVwBx2akgkYQ-4" value="Game ID (FK)" style="rounded=0;whiteSpace=wrap;html=1;fontStyle=4" parent="1" vertex="1">
          <mxGeometry x="160" y="1000" width="80" height="40" as="geometry" />
        </mxCell>
        <mxCell id="Ai_2hOqKXVwBx2akgkYQ-12" value="FG%" style="whiteSpace=wrap;html=1;fontStyle=0" parent="1" vertex="1">
          <mxGeometry x="640" y="1000" width="80" height="40" as="geometry" />
        </mxCell>
        <mxCell id="Ai_2hOqKXVwBx2akgkYQ-13" value="Steals" style="whiteSpace=wrap;html=1;fontStyle=0" parent="1" vertex="1">
          <mxGeometry x="560" y="1000" width="80" height="40" as="geometry" />
        </mxCell>
        <mxCell id="Ai_2hOqKXVwBx2akgkYQ-14" value="Blocks" style="whiteSpace=wrap;html=1;fontStyle=0" parent="1" vertex="1">
          <mxGeometry x="480" y="1000" width="80" height="40" as="geometry" />
        </mxCell>
        <mxCell id="Ai_2hOqKXVwBx2akgkYQ-15" value="Rebounds" style="whiteSpace=wrap;html=1;fontStyle=0" parent="1" vertex="1">
          <mxGeometry x="400" y="1000" width="80" height="40" as="geometry" />
        </mxCell>
        <mxCell id="Ai_2hOqKXVwBx2akgkYQ-16" value="Assists" style="whiteSpace=wrap;html=1;fontStyle=0" parent="1" vertex="1">
          <mxGeometry x="320" y="1000" width="80" height="40" as="geometry" />
        </mxCell>
        <mxCell id="Ai_2hOqKXVwBx2akgkYQ-17" value="Points" style="whiteSpace=wrap;html=1;fontStyle=0" parent="1" vertex="1">
          <mxGeometry x="240" y="1000" width="80" height="40" as="geometry" />
        </mxCell>
        <mxCell id="Ai_2hOqKXVwBx2akgkYQ-18" value="3PT%" style="whiteSpace=wrap;html=1;fontStyle=0" parent="1" vertex="1">
          <mxGeometry x="720" y="1000" width="80" height="40" as="geometry" />
        </mxCell>
        <mxCell id="izQo-bvhd4_aTaYYUiLv-4" style="edgeStyle=orthogonalEdgeStyle;rounded=0;orthogonalLoop=1;jettySize=auto;html=1;exitX=0.5;exitY=0;exitDx=0;exitDy=0;entryX=0;entryY=0.5;entryDx=0;entryDy=0;" parent="1" source="izQo-bvhd4_aTaYYUiLv-3" target="G8rt144WM2_cW-RHIFGg-1" edge="1">
          <mxGeometry relative="1" as="geometry">
            <Array as="points">
              <mxPoint x="200" y="890" />
              <mxPoint x="30" y="890" />
              <mxPoint x="30" y="60" />
            </Array>
          </mxGeometry>
        </mxCell>
        <mxCell id="izQo-bvhd4_aTaYYUiLv-3" value="Team ID (FK)" style="rounded=0;whiteSpace=wrap;html=1;" parent="1" vertex="1">
          <mxGeometry x="160" y="920" width="80" height="40" as="geometry" />
        </mxCell>
        <mxCell id="6e7BmMg7MlqfeMEdwvdw-1" value="Restantes" style="rounded=0;whiteSpace=wrap;html=1;" parent="1" vertex="1">
          <mxGeometry x="320" y="840" width="80" height="40" as="geometry" />
        </mxCell>
      </root>
    </mxGraphModel>
  </diagram>
</mxfile>
